<svg version="1.1" preserveAspectRatio="none" xmlns="http://www.w3.org/2000/svg" width="500" height="500" viewBox="0 0 500 500"><rect width="100%" height="100%" fill="#101F37" fill-opacity="1"/><svg viewBox="47.5635 45.5041 361.9127 268.9237" width="333" height="247.43976130155147" x="83.5px" y="126.2801px" xmlns="http://www.w3.org/2000/svg" xmlns:xlink="http://www.w3.org/1999/xlink" preserveAspectRatio="none"><defs></defs><style>.companyName {fill:#E9B0D6;fill-opacity:1;}.icon1 {fill:#929292;fill-opacity:1;}.icon2 {fill:#E9B0D6;fill-opacity:1;}.icon3 {fill:#E5E5E5;fill-opacity:1;}.icon3-str {stroke:#E5E5E5;stroke-opacity:1;}.text {fill:#E9B0D6;fill-opacity:1;}</style><g opacity="1" transform="rotate(0 135.8039 297.6278)">
<svg width="185.4319" height="16.8" x="135.8039" y="297.6278" version="1.1" preserveAspectRatio="none" viewBox="1.36 -28 399.96 36.239999999999995">
  <g transform="matrix(1 0 0 1 0 0)" class="text"><path id="id-6izo4zJp18" d="M18.20 0L18.20-3.20Q15.80 0.32 11.04 0.32L11.04 0.32Q6.72 0.32 4-2.68L4-2.68Q1.36-5.64 1.36-10L1.36-10Q1.36-14.36 4-17.32L4-17.32Q6.72-20.32 11.24-20.32Q15.76-20.32 18.20-16.76L18.20-16.76L18.20-20L21.20-20L21.20 0L18.20 0ZM11.44-2.40L11.44-2.40Q14.68-2.40 16.56-4.64L16.56-4.64Q18.36-6.76 18.36-10L18.36-10Q18.36-13.24 16.56-15.36L16.56-15.36Q14.68-17.60 11.44-17.60L11.44-17.60Q8.24-17.60 6.24-15.36L6.24-15.36Q4.36-13.24 4.36-10L4.36-10Q4.36-6.76 6.24-4.64L6.24-4.64Q8.24-2.40 11.44-2.40Z M45.20-14.64L42.16-14.64Q41.76-17.76 37.14-17.76Q32.52-17.76 32.52-14.88L32.52-14.88Q32.52-13.68 33.50-13.06Q34.48-12.44 35.96-12.04Q37.44-11.64 39.18-11.30Q40.92-10.96 42.40-10.34Q43.88-9.72 44.86-8.64Q45.84-7.56 45.84-5.68L45.84-5.68Q45.84-2.76 43.64-1.22Q41.44 0.32 37.68 0.32L37.68 0.32Q33.68 0.32 31.32-1.68L31.32-1.68Q29.16-3.44 29-6.28L29-6.28L32.12-6.28Q32.40-3.52 35.24-2.56L35.24-2.56Q36.28-2.24 37.30-2.24Q38.32-2.24 39.20-2.36Q40.08-2.48 40.92-2.80L40.92-2.80Q42.84-3.56 42.84-5.40L42.84-5.40Q42.84-6.64 41.86-7.30Q40.88-7.96 39.40-8.38Q37.92-8.80 36.18-9.14Q34.44-9.48 32.96-10.08Q31.48-10.68 30.50-11.72Q29.52-12.76 29.52-14.60L29.52-14.60Q29.52-17.32 31.50-18.82Q33.48-20.32 37.36-20.32L37.36-20.32Q41.04-20.32 43.16-18.56L43.16-18.56Q44.92-17.08 45.20-14.64L45.20-14.64Z M53.68-28L56.68-28L56.68-16.88Q57.76-18.32 59.32-19.32Q60.88-20.32 62.88-20.32Q64.88-20.32 66.32-19.76Q67.76-19.20 68.84-18.08L68.84-18.08Q71.32-15.64 71.32-11.64L71.32-11.64L71.32 0L68.32 0L68.32-11.56Q68.32-14.32 66.76-15.96Q65.20-17.60 62.72-17.60L62.72-17.60Q60.20-17.60 58.44-15.92L58.44-15.92Q56.68-14.20 56.68-11.52L56.68-11.52L56.68 0L53.68 0L53.68-28Z M80.32 0L80.32-20L83.32-20L83.32 0L80.32 0ZM80.20-27.28L83.44-27.28L83.44-23.36L80.20-23.36L80.20-27.28Z M109.68-20L97.84 7.92L94.60 7.92L98.24-0.28L90.08-20L93.40-20L99.84-3.60L106.40-20L109.68-20Z M131.68 0L131.68-3.20Q129.28 0.32 124.52 0.32L124.52 0.32Q120.20 0.32 117.48-2.68L117.48-2.68Q114.84-5.64 114.84-10L114.84-10Q114.84-14.36 117.48-17.32L117.48-17.32Q120.20-20.32 124.72-20.32Q129.24-20.32 131.68-16.76L131.68-16.76L131.68-20L134.68-20L134.68 0L131.68 0ZM124.92-2.40L124.92-2.40Q128.16-2.40 130.04-4.64L130.04-4.64Q131.84-6.76 131.84-10L131.84-10Q131.84-13.24 130.04-15.36L130.04-15.36Q128.16-17.60 124.92-17.60L124.92-17.60Q121.72-17.60 119.72-15.36L119.72-15.36Q117.84-13.24 117.84-10L117.84-10Q117.84-6.76 119.72-4.64L119.72-4.64Q121.72-2.40 124.92-2.40Z M143.88-20L146.88-20L146.88-16.88Q147.96-18.32 149.52-19.32Q151.08-20.32 153.08-20.32Q155.08-20.32 156.52-19.76Q157.96-19.20 159.04-18.08L159.04-18.08Q161.52-15.64 161.52-11.64L161.52-11.64L161.52 0L158.52 0L158.52-11.56Q158.52-14.32 156.96-15.96Q155.40-17.60 152.92-17.60L152.92-17.60Q150.40-17.60 148.64-15.92L148.64-15.92Q146.88-14.20 146.88-11.52L146.88-11.52L146.88 0L143.88 0L143.88-20Z M186.12 0L186.12-3.20Q183.72 0.32 178.96 0.32L178.96 0.32Q174.64 0.32 171.92-2.68L171.92-2.68Q169.28-5.64 169.28-10L169.28-10Q169.28-14.36 171.92-17.32L171.92-17.32Q174.64-20.32 179.16-20.32Q183.68-20.32 186.12-16.76L186.12-16.76L186.12-20L189.12-20L189.12 0L186.12 0ZM179.36-2.40L179.36-2.40Q182.60-2.40 184.48-4.64L184.48-4.64Q186.28-6.76 186.28-10L186.28-10Q186.28-13.24 184.48-15.36L184.48-15.36Q182.60-17.60 179.36-17.60L179.36-17.60Q176.16-17.60 174.16-15.36L174.16-15.36Q172.28-13.24 172.28-10L172.28-10Q172.28-6.76 174.16-4.64L174.16-4.64Q176.16-2.40 179.36-2.40Z M213.84-20L213.84-16.80Q216.24-20.32 221.00-20.32L221.00-20.32Q225.32-20.32 228.00-17.32L228.00-17.32Q230.68-14.36 230.68-10L230.68-10Q230.68-5.64 228.00-2.68L228.00-2.68Q225.32 0.32 220.80 0.32Q216.28 0.32 213.84-3.24L213.84-3.24L213.84 7.92L210.84 7.92L210.84-20L213.84-20ZM220.60-17.60L220.60-17.60Q217.36-17.60 215.48-15.36L215.48-15.36Q213.68-13.24 213.68-10L213.68-10Q213.68-6.76 215.48-4.64L215.48-4.64Q217.36-2.40 220.60-2.40L220.60-2.40Q223.80-2.40 225.80-4.64L225.80-4.64Q227.68-6.76 227.68-10L227.68-10Q227.68-13.24 225.80-15.36L225.80-15.36Q223.80-17.60 220.60-17.60Z M254.20-16.80L254.20-16.80L254.20-20L257.20-20L257.20-0.60Q257.20 3.72 254.74 5.98Q252.28 8.24 248.12 8.24Q243.96 8.24 241.62 6.64Q239.28 5.04 238.44 2.40L238.44 2.40L241.76 2.40Q243.04 5.52 247.60 5.52L247.60 5.52Q251.08 5.52 252.64 3.92Q254.20 2.32 254.20-0.80L254.20-0.80L254.20-3.56Q251.76 0 247.04 0L247.04 0Q242.72 0 240.00-2.96L240.00-2.96Q237.36-5.84 237.36-10.16L237.36-10.16Q237.36-14.48 240.00-17.36L240.00-17.36Q242.72-20.32 247.26-20.32Q251.80-20.32 254.20-16.80ZM247.44-2.72L247.44-2.72Q249.08-2.72 250.36-3.30Q251.64-3.88 252.56-4.88L252.56-4.88Q254.36-6.96 254.36-10.16L254.36-10.16Q254.36-13.36 252.56-15.44L252.56-15.44Q250.60-17.60 247.44-17.60L247.44-17.60Q244.20-17.60 242.24-15.44L242.24-15.44Q240.36-13.32 240.36-10.16L240.36-10.16Q240.36-7 242.24-4.88L242.24-4.88Q244.20-2.72 247.44-2.72Z M278.92-28L281.92-28L281.92-16.88Q283-18.32 284.56-19.32Q286.12-20.32 288.12-20.32Q290.12-20.32 291.56-19.76Q293-19.20 294.08-18.08L294.08-18.08Q296.56-15.64 296.56-11.64L296.56-11.64L296.56 0L293.56 0L293.56-11.56Q293.56-14.32 292-15.96Q290.44-17.60 287.96-17.60L287.96-17.60Q285.44-17.60 283.68-15.92L283.68-15.92Q281.92-14.20 281.92-11.52L281.92-11.52L281.92 0L278.92 0L278.92-28Z M314.24-20.32L314.24-20.32Q318.72-20.32 321.52-17.32L321.52-17.32Q324.16-14.44 324.16-10L324.16-10Q324.16-5.56 321.52-2.68L321.52-2.68Q318.72 0.32 314.24 0.32L314.24 0.32Q309.76 0.32 306.96-2.68L306.96-2.68Q304.32-5.56 304.32-10L304.32-10Q304.32-14.44 306.96-17.32L306.96-17.32Q309.76-20.32 314.24-20.32ZM314.24-2.40L314.24-2.40Q317.48-2.40 319.36-4.64L319.36-4.64Q321.16-6.76 321.16-10L321.16-10Q321.16-13.24 319.36-15.36L319.36-15.36Q317.48-17.60 314.24-17.60L314.24-17.60Q311-17.60 309.12-15.36L309.12-15.36Q307.32-13.24 307.32-10L307.32-10Q307.32-6.76 309.12-4.64L309.12-4.64Q311-2.40 314.24-2.40Z M346.92-14.64L343.88-14.64Q343.48-17.76 338.86-17.76Q334.24-17.76 334.24-14.88L334.24-14.88Q334.24-13.68 335.22-13.06Q336.20-12.44 337.68-12.04Q339.16-11.64 340.90-11.30Q342.64-10.96 344.12-10.34Q345.60-9.72 346.58-8.64Q347.56-7.56 347.56-5.68L347.56-5.68Q347.56-2.76 345.36-1.22Q343.16 0.32 339.40 0.32L339.40 0.32Q335.40 0.32 333.04-1.68L333.04-1.68Q330.88-3.44 330.72-6.28L330.72-6.28L333.84-6.28Q334.12-3.52 336.96-2.56L336.96-2.56Q338-2.24 339.02-2.24Q340.04-2.24 340.92-2.36Q341.80-2.48 342.64-2.80L342.64-2.80Q344.56-3.56 344.56-5.40L344.56-5.40Q344.56-6.64 343.58-7.30Q342.60-7.96 341.12-8.38Q339.64-8.80 337.90-9.14Q336.16-9.48 334.68-10.08Q333.20-10.68 332.22-11.72Q331.24-12.76 331.24-14.60L331.24-14.60Q331.24-17.32 333.22-18.82Q335.20-20.32 339.08-20.32L339.08-20.32Q342.76-20.32 344.88-18.56L344.88-18.56Q346.64-17.08 346.92-14.64L346.92-14.64Z M360.56 0L357.56 0L357.56-17.36L353.48-17.36L353.48-20L357.56-20L357.56-27.16L360.56-27.16L360.56-20L365.16-20L365.16-17.36L360.56-17.36L360.56 0Z M380.96-2.40L380.96-2.40Q385-2.40 386.76-5.76L386.76-5.76L390.04-5.76Q389-3.04 386.74-1.36Q384.48 0.32 380.92 0.32L380.92 0.32Q376.40 0.32 373.56-2.68L373.56-2.68Q370.80-5.60 370.80-10L370.80-10Q370.80-14.44 373.44-17.32L373.44-17.32Q376.24-20.32 380.72-20.32L380.72-20.32Q385.20-20.32 388-17.32L388-17.32Q390.64-14.44 390.64-10L390.64-10L390.64-8.80L373.88-8.80Q374.20-6.04 376.08-4.24L376.08-4.24Q378-2.40 380.96-2.40ZM380.72-17.60L380.72-17.60Q377.96-17.60 376.08-15.88L376.08-15.88Q374.32-14.24 373.92-11.60L373.92-11.60L387.52-11.60Q387.12-14.24 385.36-15.88L385.36-15.88Q383.48-17.60 380.72-17.60Z M401.32-28L401.32 0L398.32 0L398.32-28L401.32-28Z"/></g>
</svg>
</g><g opacity="1" transform="rotate(0 47.5635 241.6278)">
<svg width="361.9127" height="40" x="47.5635" y="241.6278" version="1.1" preserveAspectRatio="none" viewBox="2.2461 -32.4023 378.3476 41.816399999999994">
  <g transform="matrix(1 0 0 1 0 0)" class="companyName"><path id="id-D6z1nYkh12" d="M2.25-15.55L2.25-15.55Q2.25-18.77 3.46-21.57Q4.67-24.38 6.99-26.45Q9.32-28.52 12.71-29.71Q16.09-30.90 20.47-30.90L20.47-30.90Q22.05-30.90 23.64-30.73Q25.23-30.57 26.79-30.21Q28.34-29.86 29.81-29.33Q31.29-28.79 32.62-28.05L32.62-28.05L29.77-23.36Q28.96-23.83 27.95-24.21Q26.93-24.59 25.77-24.85Q24.61-25.12 23.37-25.25Q22.13-25.39 20.88-25.39L20.88-25.39Q17.99-25.39 15.72-24.66Q13.46-23.93 11.89-22.61Q10.33-21.29 9.51-19.45Q8.69-17.62 8.69-15.43L8.69-15.43Q8.69-13.16 9.55-11.27Q10.41-9.38 11.99-8.01Q13.57-6.64 15.82-5.87Q18.07-5.10 20.84-5.10L20.84-5.10Q23.05-5.10 24.88-5.60Q26.72-6.09 28.09-7.01Q29.45-7.93 30.31-9.23Q31.17-10.53 31.45-12.15L31.45-12.15L20.78-12.15L20.78-17.25L37.01-17.25L37.01-17.23L37.03-17.25Q37.52-14.90 37.33-12.69Q37.15-10.47 36.32-8.51Q35.49-6.54 34.04-4.90Q32.60-3.26 30.59-2.08Q28.57-0.90 26.02-0.24Q23.46 0.41 20.41 0.41L20.41 0.41Q16.15 0.41 12.78-0.84Q9.41-2.09 7.07-4.26Q4.73-6.43 3.49-9.34Q2.25-12.25 2.25-15.55Z M44.23-11.52L44.23-11.52Q44.23-14.00 45.23-16.17Q46.24-18.34 48.10-19.96Q49.97-21.58 52.62-22.52Q55.26-23.46 58.56-23.46L58.56-23.46Q61.86-23.46 64.51-22.52Q67.16-21.58 69.02-19.96Q70.89-18.34 71.89-16.17Q72.90-14.00 72.90-11.52L72.90-11.52Q72.90-9.04 71.89-6.88Q70.89-4.71 69.02-3.09Q67.16-1.46 64.51-0.53Q61.86 0.41 58.56 0.41L58.56 0.41Q55.26 0.41 52.62-0.53Q49.97-1.46 48.10-3.09Q46.24-4.71 45.23-6.88Q44.23-9.04 44.23-11.52ZM50.30-11.52L50.30-11.52Q50.30-10.14 50.86-8.90Q51.41-7.66 52.48-6.71Q53.54-5.76 55.08-5.21Q56.61-4.65 58.56-4.65L58.56-4.65Q60.52-4.65 62.05-5.21Q63.58-5.76 64.65-6.71Q65.71-7.66 66.27-8.90Q66.82-10.14 66.82-11.52L66.82-11.52Q66.82-12.91 66.27-14.16Q65.71-15.41 64.65-16.36Q63.58-17.30 62.05-17.86Q60.52-18.42 58.56-18.42L58.56-18.42Q56.61-18.42 55.08-17.86Q53.54-17.30 52.48-16.36Q51.41-15.41 50.86-14.16Q50.30-12.91 50.30-11.52Z M86.36-1.66L86.36 9.41L80.58 9.41L80.58-23.05L86.36-23.05L86.36-20.88Q87.13-21.41 88.16-21.88Q89.20-22.34 90.39-22.70Q91.58-23.05 92.85-23.25Q94.12-23.46 95.39-23.46L95.39-23.46Q98.32-23.46 100.77-22.60Q103.22-21.74 104.98-20.18Q106.73-18.61 107.72-16.44Q108.71-14.26 108.71-11.62L108.71-11.62Q108.71-8.87 107.67-6.65Q106.64-4.43 104.81-2.86Q102.98-1.29 100.47-0.44Q97.96 0.41 95.04 0.41L95.04 0.41Q93.79 0.41 92.56 0.25Q91.34 0.10 90.22-0.18Q89.10-0.45 88.11-0.83Q87.13-1.21 86.36-1.66L86.36-1.66ZM86.36-15.23L86.36-7.25Q87.24-6.54 88.22-6.05Q89.20-5.57 90.21-5.25Q91.23-4.94 92.26-4.79Q93.30-4.65 94.27-4.65L94.27-4.65Q96.27-4.65 97.82-5.19Q99.37-5.72 100.44-6.66Q101.50-7.60 102.07-8.87Q102.63-10.14 102.63-11.62L102.63-11.62Q102.63-13.01 102.08-14.24Q101.52-15.47 100.47-16.40Q99.43-17.32 97.96-17.86Q96.48-18.40 94.64-18.40L94.64-18.40Q93.47-18.40 92.30-18.17Q91.13-17.95 90.04-17.54Q88.96-17.13 88.01-16.54Q87.07-15.96 86.36-15.23L86.36-15.23Z M115.06-7.27L115.06-7.27Q115.06-8.93 115.79-10.29Q116.51-11.66 117.95-12.65Q119.40-13.63 121.56-14.17Q123.71-14.71 126.59-14.71L126.59-14.71Q128.71-14.71 131.07-14.39Q133.42-14.08 135.92-13.44L135.92-13.44Q135.82-14.53 135.26-15.46Q134.69-16.39 133.69-17.06Q132.68-17.73 131.26-18.11Q129.85-18.48 128.05-18.48L128.05-18.48Q127.07-18.48 125.90-18.36Q124.73-18.24 123.48-18.01Q122.23-17.77 121.01-17.42Q119.79-17.07 118.73-16.58L118.73-16.58L116.98-21.33Q118.29-21.80 119.78-22.19Q121.27-22.58 122.84-22.86Q124.40-23.14 125.96-23.30Q127.52-23.46 128.99-23.46L128.99-23.46Q135.45-23.46 138.60-20.16Q141.74-16.86 141.74-10.04L141.74-10.04L141.74 0L135.96 0L135.96-2.17Q135.06-1.64 134.00-1.17Q132.93-0.70 131.68-0.35Q130.43 0 129.00 0.21Q127.56 0.41 125.96 0.41L125.96 0.41Q123.27 0.41 121.22-0.18Q119.18-0.76 117.82-1.80Q116.45-2.83 115.76-4.23Q115.06-5.63 115.06-7.27ZM121.16-7.46L121.16-7.46Q121.16-6.89 121.45-6.38Q121.74-5.86 122.39-5.46Q123.03-5.06 124.04-4.81Q125.04-4.57 126.47-4.57L126.47-4.57Q127.99-4.57 129.42-4.84Q130.84-5.12 132.07-5.57Q133.30-6.02 134.30-6.60Q135.30-7.19 135.96-7.81L135.96-7.81L135.96-8.83Q134.63-9.20 133.33-9.45Q132.04-9.71 130.85-9.85Q129.67-10 128.63-10.06Q127.58-10.12 126.80-10.12L126.80-10.12Q125.18-10.12 124.11-9.90Q123.03-9.69 122.37-9.33Q121.70-8.96 121.43-8.48Q121.16-7.99 121.16-7.46Z M151.54 0L151.54-32.40L157.32-32.40L157.32 0L151.54 0Z M182.16 0L182.16-23.05L187.94-23.05L187.94-21.09Q190.11-22.42 192.17-22.94Q194.23-23.46 196.20-23.46L196.20-23.46Q198.95-23.46 201.26-22.58Q203.56-21.70 205.20-19.92L205.20-19.92Q206.47-20.90 207.70-21.57Q208.93-22.25 210.16-22.67Q211.39-23.09 212.66-23.27Q213.93-23.46 215.28-23.46L215.28-23.46Q218.11-23.46 220.42-22.69Q222.72-21.91 224.35-20.39Q225.98-18.87 226.87-16.59Q227.76-14.32 227.76-11.33L227.76-11.33L227.76 0L222 0L222-10.39Q222-12.29 221.46-13.78Q220.93-15.27 219.96-16.30Q218.99-17.32 217.65-17.86Q216.32-18.40 214.71-18.40L214.71-18.40Q213.84-18.40 212.92-18.23Q212-18.07 211.13-17.71Q210.26-17.36 209.50-16.83Q208.74-16.29 208.17-15.57L208.17-15.57L208.17 0L202.41 0L202.41-10.39Q202.41-12.29 201.87-13.78Q201.34-15.27 200.37-16.30Q199.40-17.32 198.04-17.86Q196.69-18.40 195.07-18.40L195.07-18.40Q194.07-18.40 193.06-18.19Q192.06-17.99 191.13-17.62Q190.20-17.25 189.39-16.72Q188.58-16.19 187.94-15.53L187.94-15.53L187.94 0L182.16 0Z M235.93-7.27L235.93-7.27Q235.93-8.93 236.66-10.29Q237.38-11.66 238.82-12.65Q240.27-13.63 242.43-14.17Q244.59-14.71 247.46-14.71L247.46-14.71Q249.59-14.71 251.94-14.39Q254.29-14.08 256.79-13.44L256.79-13.44Q256.70-14.53 256.13-15.46Q255.56-16.39 254.56-17.06Q253.55-17.73 252.13-18.11Q250.72-18.48 248.92-18.48L248.92-18.48Q247.95-18.48 246.77-18.36Q245.60-18.24 244.35-18.01Q243.10-17.77 241.88-17.42Q240.66-17.07 239.61-16.58L239.61-16.58L237.85-21.33Q239.16-21.80 240.65-22.19Q242.14-22.58 243.71-22.86Q245.27-23.14 246.83-23.30Q248.39-23.46 249.86-23.46L249.86-23.46Q256.32-23.46 259.47-20.16Q262.61-16.86 262.61-10.04L262.61-10.04L262.61 0L256.83 0L256.83-2.17Q255.93-1.64 254.87-1.17Q253.80-0.70 252.55-0.35Q251.30 0 249.87 0.21Q248.43 0.41 246.83 0.41L246.83 0.41Q244.14 0.41 242.10-0.18Q240.05-0.76 238.69-1.80Q237.32-2.83 236.63-4.23Q235.93-5.63 235.93-7.27ZM242.03-7.46L242.03-7.46Q242.03-6.89 242.32-6.38Q242.61-5.86 243.26-5.46Q243.90-5.06 244.91-4.81Q245.91-4.57 247.34-4.57L247.34-4.57Q248.86-4.57 250.29-4.84Q251.71-5.12 252.95-5.57Q254.18-6.02 255.17-6.60Q256.17-7.19 256.83-7.81L256.83-7.81L256.83-8.83Q255.50-9.20 254.21-9.45Q252.91-9.71 251.72-9.85Q250.54-10 249.50-10.06Q248.45-10.12 247.67-10.12L247.67-10.12Q246.05-10.12 244.98-9.90Q243.90-9.69 243.24-9.33Q242.57-8.96 242.30-8.48Q242.03-7.99 242.03-7.46Z M275.73 0L275.73-18.71L270.16-18.71L270.16-23.05L275.73-23.05L275.73-30.21L281.51-30.21L281.51-23.05L287.07-23.05L287.07-18.71L281.51-18.71L281.51 0L275.73 0Z M294.21 0L294.21-32.38L299.99-32.38L299.99-21.29Q301.81-22.29 304.04-22.87Q306.28-23.46 308.74-23.46L308.74-23.46Q311.59-23.46 313.87-22.62Q316.14-21.78 317.73-20.21Q319.31-18.63 320.16-16.39Q321.01-14.14 321.01-11.33L321.01-11.33L321.01 0L315.25 0L315.25-11.09Q315.25-12.73 314.72-14.09Q314.19-15.45 313.18-16.43Q312.16-17.40 310.71-17.94Q309.25-18.48 307.41-18.48L307.41-18.48Q305.21-18.48 303.31-17.77Q301.42-17.07 299.99-16.00L299.99-16.00L299.99 0L294.21 0Z M329.47-11.00L329.47-23.07L335.23-23.07L335.23-11.82Q335.23-10.21 335.59-8.90Q335.94-7.58 336.79-6.64Q337.64-5.70 339.05-5.19Q340.47-4.67 342.58-4.67L342.58-4.67Q343.57-4.67 344.60-4.88Q345.63-5.10 346.56-5.48Q347.50-5.86 348.31-6.39Q349.12-6.91 349.71-7.54L349.71-7.54L349.71-23.07L355.49-23.07L355.49 0L349.71 0L349.71-1.97Q347.58-0.70 345.43-0.16Q343.28 0.39 341.35 0.39L341.35 0.39Q338.18 0.39 335.93-0.37Q333.67-1.13 332.24-2.59Q330.80-4.04 330.14-6.16Q329.47-8.28 329.47-11.00L329.47-11.00Z M364.83 0L364.83-23.05L370.61-23.05L370.61-19.73Q372.53-21.15 374.66-22.19Q376.79-23.22 378.89-23.77L378.89-23.77L380.59-18.48Q377.25-18.14 374.72-16.98Q372.20-15.82 370.61-13.71L370.61-13.71L370.61 0L364.83 0Z"/></g>
</svg>
</g><g opacity="1" transform="rotate(0 156.1373 45.5041)">
<svg width="144.7651" height="166.1237" x="156.1373" y="45.5041" version="1.1" preserveAspectRatio="none" viewBox="39 30 122 140">
  <g transform="matrix(1 0 0 1 0 0)"><g><path d="M161 65l-47.5-27.3L100 30l-13.5 7.7L39 65v70l47.5 27.3L100 170l13.5-7.7L161 135V65zm-24.4 54V81l20.8-11.8v61.7L136.6 119zm-26.7 41.3l-9.9 5.6-9.9-5.6V149l9.9-5.6 9.9 5.6v11.3zm-41.1-40.4L100 102l31.2 17.9-31.2 18-31.2-18zm-26.2 11V69.1L63.4 81v37.9l-20.8 12zM67 83.1L96.4 100 67 116.9V83.1zm23.1-43.4l9.9-5.6 9.9 5.6V51l-9.9 5.6-9.9-5.6V39.7zm41.1 40.4L100 98 68.8 80.1l31.2-18 31.2 18zM103.6 100L133 83.1v33.7L103.6 100zm52-33.9l-20.8 11.8-32.5-18.7 10.9-6.3V41.7l42.4 24.4zm-58.1-6.7L65.2 77.9 44.4 66.1l42.2-24.2v11.3l10.9 6.2zm-53.1 74.5l20.8-11.8 32.5 18.7-11 6.2v11.3l-42.3-24.4zm58.1 6.7l32.5-18.7 20.8 11.8-42.2 24.3v-11.3l-11.1-6.1z" data-color="1" class="icon1"></path></g></g>
</svg>
</g></svg></svg>